# xmcd CD database file
#
# Track frame offsets:
#	150
#	19962
#	31937
#	46332
#	61360
#	92010
#	110052
#	121162
#	150217
#	167152
#	185930
#	199140
#
# Disc length: 2872 seconds
#
# Revision: 1
# Processed by: cddbd v1.4PL0 Copyright (c) Steve Scherf et al.
# Submitted via: CDex 1.50
#
DISCID=9e0b360c
DTITLE=Lou Simon - Synchronized With Blues
DYEAR=1995
DGENRE=Blues
TTITLE0=Dyin' To Scratch
TTITLE1=Take Back That Ring
TTITLE2=Who's The Devil's Done That
TTITLE3=With A Smile On My Face
TTITLE4=Full Blues Jacket
TTITLE5=Cryin' Like A Baby
TTITLE6=Bad Boy
TTITLE7=The Thrill Is Gone
TTITLE8=Deaf'n Blind
TTITLE9=Nobody Cares
TTITLE10=Sweet Baby
TTITLE11=Keep On Walkin'
EXTD=YEAR: 1995
EXTT0=
EXTT1=
EXTT2=
EXTT3=
EXTT4=
EXTT5=
EXTT6=
EXTT7=
EXTT8=
EXTT9=
EXTT10=
EXTT11=
PLAYORDER=
